<?xml version="1.0" encoding="UTF-8"?>
<svg version="1.1" xmlns="http://www.w3.org/2000/svg" width="137" height="137">
<path d="M0 0 C3.63090667 2.74743712 6.82661134 5.74055334 10 9 C11.17175781 10.14082031 11.17175781 10.14082031 12.3671875 11.3046875 C25.51665366 24.80834803 30.45572495 42.41449053 30.2734375 60.8984375 C29.39740012 79.06970792 20.65577372 95.62366091 7.765625 108.17578125 C-7.43980034 121.31469744 -25.89106677 126.33058863 -45.68701172 125.21142578 C-60.06309919 123.89733545 -73.24887348 117.44001353 -84 108 C-84.67675781 107.41734375 -85.35351562 106.8346875 -86.05078125 106.234375 C-96.92405837 96.1845111 -105.15669332 80.54354802 -106.16113281 65.60327148 C-106.55608845 42.25726013 -102.17037018 24.99948759 -85.796875 7.66796875 C-76.49934569 -1.36787513 -64.74299807 -7.556414 -52 -10 C-51.06027344 -10.18046875 -50.12054688 -10.3609375 -49.15234375 -10.546875 C-31.67376152 -13.05928583 -14.96170978 -9.28911061 0 0 Z M-83.37890625 14.09375 C-94.55999216 26.49125808 -100.24421479 41.13667333 -100.0625 57.8125 C-100.05798828 58.60076172 -100.05347656 59.38902344 -100.04882812 60.20117188 C-100.03711312 62.13414761 -100.01917998 64.06708393 -100 66 C-89.97116602 64.39481836 -85.66770891 62.39559571 -79.46875 54.27734375 C-77.81933482 52.17152174 -77.81933482 52.17152174 -78 50 C-76.9171875 49.8453125 -76.9171875 49.8453125 -75.8125 49.6875 C-72.75508007 48.94013068 -70.61670365 47.71954811 -68 46 C-67.22076172 46.72316406 -67.22076172 46.72316406 -66.42578125 47.4609375 C-65.72839844 48.09257813 -65.03101563 48.72421875 -64.3125 49.375 C-63.62800781 50.00148437 -62.94351563 50.62796875 -62.23828125 51.2734375 C-59.90625957 53.07230937 -57.77048993 54.03930472 -55 55 C-54.5153125 54.48050781 -54.030625 53.96101563 -53.53125 53.42578125 C-49.52980387 49.26273825 -45.76994955 45.92897705 -40.6640625 43.203125 C-38.631406 41.73350481 -37.95230602 40.28938215 -37 38 C-29.67180654 38.57854159 -23.11501387 42.26099045 -17.375 46.6875 C-14.89003216 48.57325574 -12.85811317 49.44632745 -9.8125 50.125 C-6 51 -6 51 -4 52.625 C-0.0107335 55.36762072 5.21575651 54.13070725 9.75 53.375 C13.27315804 52.96848176 14.1354903 53.09032687 17 55 C18.484375 57.1640625 18.484375 57.1640625 19.75 59.625 C20.17796875 60.44226563 20.6059375 61.25953125 21.046875 62.1015625 C21.36140625 62.72804688 21.6759375 63.35453125 22 64 C25.44810935 58.53381114 23.86442103 52.09479462 23 46 C19.10686562 28.9434459 10.65456653 14.86161134 -4 5 C-29.98883876 -10.34280842 -62.00846962 -7.66550934 -83.37890625 14.09375 Z M-35 42 C-35.6496875 42.8971875 -35.6496875 42.8971875 -36.3125 43.8125 C-38.30445739 46.39466699 -40.17490907 47.36772524 -43 49 C-45.06878732 50.50199627 -47.10194759 52.04487433 -49.1328125 53.59765625 C-50.71561014 54.78641012 -52.35296403 55.90197602 -54 57 C-54 57.99 -54 58.98 -54 60 C-52.3282287 61.32947121 -52.3282287 61.32947121 -50.1875 62.4375 C-46.16028162 64.78201699 -46.16028162 64.78201699 -44.4375 67.125 C-42.20870155 70.03212841 -39.39269762 70.71973675 -36 72 C-36.72517213 67.43447972 -39.41182846 65.14373717 -42.50390625 61.90234375 C-44 60 -44 60 -44 57 C-41.375 54.75 -41.375 54.75 -38 53 C-35 53.3125 -35 53.3125 -32 54 C-28.73589643 53.62382706 -28.73589643 53.62382706 -26 53 C-23.3184721 56.07692746 -22.57912193 58.19734663 -22.3125 62.25 C-22.21388672 63.58804688 -22.21388672 63.58804688 -22.11328125 64.953125 C-22.07589844 65.62859375 -22.03851563 66.3040625 -22 67 C-19.69 67.33 -17.38 67.66 -15 68 C-14.89042969 68.65226562 -14.78085938 69.30453125 -14.66796875 69.9765625 C-13.72850683 75.15505992 -12.57760197 79.36031645 -10 84 C-9.525625 85.175625 -9.05125 86.35125 -8.5625 87.5625 C-7.03435542 90.92441808 -5.33448246 93.17032429 -3 96 C-1.58912278 98.29688885 -0.29796212 100.63585471 1 103 C4.33136597 101.57646476 6.27664757 99.8664687 8.625 97.125 C9.21539062 96.44695312 9.80578125 95.76890625 10.4140625 95.0703125 C12.95605776 91.7519443 14.15327733 88.84467149 14.875 84.75 C15.70210794 80.66153151 17.1414972 77.47978555 19.29296875 73.921875 C20.28164758 71.23441654 19.84815925 69.7141096 19 67 C17.6570409 64.54724406 17.6570409 64.54724406 16 62.25 C15.46375 61.47140625 14.9275 60.6928125 14.375 59.890625 C13.1368734 58.08488588 13.1368734 58.08488588 12 57 C10.00041636 56.95919217 7.99954746 56.95745644 6 57 C4.71614825 60.85155526 5.70809863 62.19606819 7 66 C7.4416175 68.66410556 7.72188897 71.31159334 8 74 C4.05695669 70.42515259 1.97452677 67.21038122 -0.1875 62.375 C-2.51529658 57.6893557 -2.51529658 57.6893557 -6.53125 54.59375 C-9.13802172 53.835693 -9.13802172 53.835693 -11.66796875 53.4921875 C-14.43643491 52.90788811 -15.76982007 51.70083761 -18 50 C-20.40644157 49.19059351 -20.40644157 49.19059351 -22.9375 48.625 C-27.7082118 47.31112208 -29.80564509 45.69347287 -33 42 C-33.66 42 -34.32 42 -35 42 Z M-72 51 C-74.43323182 53.56129666 -76.42746538 56.06167938 -78.265625 59.07421875 C-81.20534567 63.64430175 -83.26600927 65.4458839 -88.625 66.75 C-89.54539062 66.90984375 -90.46578125 67.0696875 -91.4140625 67.234375 C-94.61432001 68.18188327 -96.02576116 69.32273953 -98 72 C-97.67 73.32 -97.34 74.64 -97 76 C-92.05 75.01 -92.05 75.01 -87 74 C-86.34 75.32 -85.68 76.64 -85 78 C-84.34 78.33 -83.68 78.66 -83 79 C-80.13285492 77.8154518 -77.40235941 76.41982309 -74.62890625 75.03125 C-72 74 -72 74 -69 75 C-67.97682706 81.48009529 -71.46583669 85.9015349 -75 91 C-75.93813409 92.18297012 -76.89358975 93.35267799 -77.875 94.5 C-80.21588281 96.70712957 -80.21588281 96.70712957 -80 99 C-76.95783513 98.56540502 -75.01540438 98.00953604 -72.375 96.375 C-71.59125 95.92125 -70.8075 95.4675 -70 95 C-67 96 -67 96 -65.61328125 98.72265625 C-65.18402344 99.82480469 -64.75476563 100.92695312 -64.3125 102.0625 C-63.87550781 103.16722656 -63.43851563 104.27195313 -62.98828125 105.41015625 C-62.66214844 106.26480469 -62.33601563 107.11945313 -62 108 C-59.0745356 108.2236068 -59.0745356 108.2236068 -57 107 C-50.5558019 106.44446568 -46.46162248 107.56927495 -41 111 C-40.3915625 111.53625 -39.783125 112.0725 -39.15625 112.625 C-36.24366168 114.4823027 -34.17030052 114.29903154 -30.75 114.1875 C-29.67234375 114.16042969 -28.5946875 114.13335937 -27.484375 114.10546875 C-26.66453125 114.07066406 -25.8446875 114.03585938 -25 114 C-25.28286373 105.08979253 -28.3827732 100.10293217 -34.2109375 93.4921875 C-39.98433256 86.86797633 -39.98433256 86.86797633 -40.0390625 83.8359375 C-39.88179687 83.16820312 -39.72453125 82.50046875 -39.5625 81.8125 C-38.60020767 78.15700975 -38.60020767 78.15700975 -40.25 76.01953125 C-43.14014402 72.9985833 -45.29234744 71.2269829 -49.3125 69.9375 C-50.199375 69.628125 -51.08625 69.31875 -52 69 C-52.27328125 68.08734375 -52.5465625 67.1746875 -52.828125 66.234375 C-54.27992235 62.22741432 -56.07405947 60.87193084 -59.4375 58.3125 C-64.92879526 54.0788649 -64.92879526 54.0788649 -66.59765625 52.23046875 C-68.19017165 50.56030559 -68.19017165 50.56030559 -72 51 Z " fill="#000000" transform="translate(107,11)"/>
</svg>
