<?xml version="1.0" encoding="UTF-8"?>
<svg version="1.1" xmlns="http://www.w3.org/2000/svg" width="137" height="137">
<path d="M0 0 C3.63090667 2.74743712 6.82661134 5.74055334 10 9 C11.17175781 10.14082031 11.17175781 10.14082031 12.3671875 11.3046875 C25.51665366 24.80834803 30.45572495 42.41449053 30.2734375 60.8984375 C29.39740012 79.06970792 20.65577372 95.62366091 7.765625 108.17578125 C-7.43980034 121.31469744 -25.89106677 126.33058863 -45.68701172 125.21142578 C-60.06309919 123.89733545 -73.24887348 117.44001353 -84 108 C-84.67675781 107.41734375 -85.35351562 106.8346875 -86.05078125 106.234375 C-96.92405837 96.1845111 -105.15669332 80.54354802 -106.16113281 65.60327148 C-106.55608845 42.25726013 -102.17037018 24.99948759 -85.796875 7.66796875 C-76.49934569 -1.36787513 -64.74299807 -7.556414 -52 -10 C-51.06027344 -10.18046875 -50.12054688 -10.3609375 -49.15234375 -10.546875 C-31.67376152 -13.05928583 -14.96170978 -9.28911061 0 0 Z " fill="#000000" transform="translate(107,11)"/>
<path d="M0 0 C13.37467674 12.36665882 18.83967201 28.16240099 20.20703125 45.8984375 C20.12613471 48.92242736 19.72746841 50.4466791 18.125 52.96484375 C17.65320313 52.02511719 17.65320313 52.02511719 17.171875 51.06640625 C16.74390625 50.24914062 16.3159375 49.431875 15.875 48.58984375 C15.45734375 47.77773437 15.0396875 46.965625 14.609375 46.12890625 C12.95027313 43.71011037 11.88214493 42.89803127 9.125 41.96484375 C6.78351268 42.23501536 4.44995277 42.57735162 2.125 42.96484375 C-3.86814995 43.60241289 -6.96241901 42.44458862 -11.875 38.96484375 C-13.82127833 38.40058517 -13.82127833 38.40058517 -15.875 38.02734375 C-19.50154188 37.25267601 -21.4902398 35.80762017 -24.24609375 33.26953125 C-28.94478017 29.50607498 -34.95197169 27.57233383 -40.875 26.96484375 C-41.22304687 27.85042969 -41.22304687 27.85042969 -41.578125 28.75390625 C-43.19741397 31.51450131 -44.94496831 32.61000511 -47.625 34.33984375 C-51.90853068 37.21415491 -55.37453227 40.18802331 -58.875 43.96484375 C-64.27989519 42.44471698 -67.85992628 38.69099157 -71.875 34.96484375 C-72.968125 35.62484375 -74.06125 36.28484375 -75.1875 36.96484375 C-77.81207538 38.54949304 -78.7006378 38.96484375 -81.875 38.96484375 C-82.13925781 39.52945313 -82.40351562 40.0940625 -82.67578125 40.67578125 C-85.51734968 46.09975225 -88.70290871 51.050279 -94.4375 53.46484375 C-95.571875 53.62984375 -96.70625 53.79484375 -97.875 53.96484375 C-99.87545796 54.2954176 -101.87553308 54.62832758 -103.875 54.96484375 C-104.72343238 35.71014233 -101.07062278 18.71900466 -87.875 3.96484375 C-64.29470682 -21.53680665 -26.38703795 -21.53370775 0 0 Z " fill="#FFFFFF" transform="translate(110.875,22.03515625)"/>
<path d="M0 0 C4.90275914 0.43679127 7.14063414 2.59231679 10.625 5.9375 C13.36638812 8.54745171 15.84878673 10.89919116 19 13 C19.6875 15.625 19.6875 15.625 20 18 C20.845625 18.185625 21.69125 18.37125 22.5625 18.5625 C27.06016306 20.44334092 30.37009491 22.83324412 33 27 C32.71159513 28.95474412 32.41391143 30.91265475 31.9609375 32.8359375 C32.04897752 37.71335441 36.93554558 41.52406407 40 45 C44.75038753 51.00368126 46.75532883 55.29285821 47 63 C39.14514282 63.71770269 34.13779808 63.37111469 27.83984375 58.41015625 C24.04395599 55.50078155 19.60162558 55.47889461 15 56 C12.79936592 56.94583636 12.79936592 56.94583636 11 58 C8.66666667 53.33333333 6.33333333 48.66666667 4 44 C1.0280615 45.12451727 -1.33440687 46.22293791 -4 48 C-5.32 48 -6.64 48 -8 48 C-6.9482563 44.52924579 -5.44591417 42.22388059 -3.0625 39.5625 C0.49558259 35.54334558 2.88184157 32.12685179 3.1875 26.625 C3.125625 25.75875 3.06375 24.8925 3 24 C-0.91571701 22.694761 -2.03892997 23.67760152 -5.6875 25.4375 C-6.68136719 25.91058594 -7.67523437 26.38367188 -8.69921875 26.87109375 C-9.83810547 27.42990234 -9.83810547 27.42990234 -11 28 C-13 26.625 -13 26.625 -15 25 C-15 24.34 -15 23.68 -15 23 C-18.37705625 23.53725895 -21.696686 24.11064623 -25 25 C-25.33 23.68 -25.66 22.36 -26 21 C-22.51615847 17.60548774 -20.35918545 15.85347973 -15.5 15.1875 C-11.60152975 14.50068897 -10.09070392 13.44132055 -7.75 10.25 C-6.82714278 8.83735823 -5.91033026 7.42074665 -5 6 C-4.06107866 4.81765461 -3.10441074 3.64902937 -2.125 2.5 C-1.42375 1.675 -0.7225 0.85 0 0 Z " fill="#FFFFFF" transform="translate(35,62)"/>
<path d="M0 0 C2.4300277 1.08001231 4.14421186 2.13148728 6.125 3.9375 C9.55928716 6.40122774 12.73304273 7.25429875 16.79296875 8.2890625 C19 9 19 9 21 11 C22.52023431 11.21266038 24.04117974 11.42025267 25.5625 11.625 C29.62197372 12.71340962 31.38783271 14.20903789 33.5546875 17.68359375 C35.52447582 21.16145801 37.30800735 24.72735655 38.99194336 28.35180664 C40.04561618 30.33402828 40.04561618 30.33402828 43 32 C42.68954268 30.0830014 42.37655329 28.16641277 42.0625 26.25 C41.88847656 25.18265625 41.71445313 24.1153125 41.53515625 23.015625 C41.06289084 20.09704753 41.06289084 20.09704753 40.37109375 17.671875 C40.24863281 17.12015625 40.12617187 16.5684375 40 16 C41 15 41 15 43.8125 14.625 C47 15 47 15 49.125 17.0625 C49.74375 18.031875 50.3625 19.00125 51 20 C51.38542969 20.55429688 51.77085938 21.10859375 52.16796875 21.6796875 C54.02918385 24.53820899 55 26.56802285 55 30 C54.00342197 32.98973409 52.61785658 35.4152335 50.96484375 38.0859375 C49.88722234 40.22372896 49.51767933 42.081424 49.125 44.4375 C47.80570661 51.34023149 43.0505868 56.33791988 38 61 C34.3651391 59.7883797 34.23057887 59.05334307 32.5625 55.75 C31.12976808 53.0179136 29.85497263 50.82511405 27.875 48.4375 C25.75123127 45.67660065 24.77616766 43.10829908 23.65625 39.83984375 C23.03112478 37.92353259 23.03112478 37.92353259 21.875 36 C20.46719731 32.78216528 20.34826288 29.48262877 20 26 C17.69 25.67 15.38 25.34 13 25 C12.96261719 24.32453125 12.92523438 23.6490625 12.88671875 22.953125 C12.82097656 22.06109375 12.75523438 21.1690625 12.6875 20.25 C12.62949219 19.36828125 12.57148437 18.4865625 12.51171875 17.578125 C11.91809285 14.587338 11.20569672 13.10634101 9 11 C6.83670452 10.73288108 6.83670452 10.73288108 4.5625 11.25 C1.56342033 11.75745849 -0.90854463 12 -4 12 C-6.71126384 13.42621684 -6.71126384 13.42621684 -9 15 C-8.84595887 20.08335725 -5.97931568 22.35754718 -2.49609375 25.64453125 C-2.00238281 26.09183594 -1.50867188 26.53914063 -1 27 C-1.33 27.99 -1.66 28.98 -2 30 C-6.97668152 27.09796487 -10.95956159 24.15267281 -15 20 C-17.16620544 18.70480005 -17.16620544 18.70480005 -19 18 C-18.64937903 15.20107743 -18.26525128 14.2161111 -16.0390625 12.40234375 C-15.24242187 11.91894531 -14.44578125 11.43554688 -13.625 10.9375 C-10.7192024 9.15332134 -8.37191199 7.43929585 -6 5 C-4.700625 4.2265625 -4.700625 4.2265625 -3.375 3.4375 C-0.88809625 2.22087094 -0.88809625 2.22087094 0 0 Z " fill="#FFFFFF" transform="translate(72,53)"/>
</svg>
