<?xml version="1.0" standalone="no"?>
<!DOCTYPE svg PUBLIC "-//W3C//DTD SVG 20010904//EN"
 "http://www.w3.org/TR/2001/REC-SVG-20010904/DTD/svg10.dtd">
<svg version="1.0" xmlns="http://www.w3.org/2000/svg"
 width="137.000000pt" height="137.000000pt" viewBox="0 0 137.000000 137.000000"
 preserveAspectRatio="xMidYMid meet">

<g transform="translate(0.000000,137.000000) scale(0.100000,-0.100000)"
fill="#000000" stroke="none">
<path d="M565 1296 c-139 -32 -238 -89 -332 -189 -107 -115 -163 -259 -163
-419 0 -86 1 -88 24 -88 13 0 29 7 36 15 7 8 25 15 40 15 23 0 39 13 80 65 28
36 57 65 64 65 7 0 21 9 31 20 28 31 57 24 105 -25 24 -25 48 -45 52 -45 5 0
39 25 76 55 37 30 86 70 108 88 l42 34 71 -34 c39 -19 71 -39 71 -44 0 -5 6
-9 14 -9 7 0 19 -7 26 -15 7 -8 26 -15 43 -15 17 0 48 -12 69 -26 40 -28 61
-31 140 -19 57 9 67 2 105 -67 22 -41 28 -46 36 -32 13 23 1 155 -21 235 -54
196 -223 364 -422 423 -78 23 -221 29 -295 12z"/>
<path d="M713 825 c-5 -8 -27 -27 -50 -42 -22 -16 -64 -46 -93 -68 -48 -35
-51 -40 -34 -50 10 -5 39 -29 63 -52 24 -24 46 -43 50 -43 3 0 19 -7 35 -15
16 -9 31 -13 34 -11 2 3 -20 33 -49 67 l-54 61 35 30 c27 22 42 28 63 24 16
-3 37 -1 48 5 44 23 80 -16 89 -96 4 -44 8 -50 30 -53 29 -4 50 -27 50 -56 0
-12 11 -43 25 -70 14 -27 25 -59 25 -72 0 -12 11 -29 24 -37 13 -9 36 -41 52
-72 l27 -56 35 33 c61 58 92 108 92 148 0 23 9 48 25 70 42 57 42 90 1 153
-40 63 -61 78 -93 66 -27 -10 -27 -12 -8 -64 8 -22 14 -53 15 -68 0 -52 -32
-27 -75 58 -41 82 -66 105 -116 105 -15 0 -32 7 -39 15 -6 8 -36 21 -66 30
-30 8 -69 29 -88 45 -39 34 -42 35 -53 15z"/>
<path d="M349 747 c-8 -7 -34 -40 -57 -74 -47 -70 -65 -83 -115 -83 -39 0 -87
-40 -87 -71 0 -22 11 -23 58 -7 32 12 35 11 58 -17 l23 -29 59 28 c66 32 96
31 100 -1 4 -29 -40 -117 -84 -165 -18 -21 -34 -43 -34 -48 0 -18 35 -11 69
15 44 32 61 22 85 -47 27 -76 31 -79 71 -62 47 19 116 5 165 -35 34 -27 47
-31 99 -31 l61 0 0 30 c0 44 -21 89 -68 143 -23 26 -53 63 -68 82 -25 33 -26
36 -10 60 12 19 14 30 6 44 -11 22 -102 91 -119 91 -6 0 -11 11 -11 25 0 15
-8 29 -22 36 -13 7 -51 38 -86 70 -34 33 -66 59 -70 59 -4 0 -14 -6 -23 -13z"/>
</g>
</svg>
